<svg width="16" height="16" viewBox="0 0 16 16" fill="none" xmlns="http://www.w3.org/2000/svg">
<path fill-rule="evenodd" clip-rule="evenodd" d="M2 9.25C2.41421 9.25 2.75 9.58579 2.75 10V12.6667C2.75 12.8214 2.81146 12.9697 2.92085 13.0791C3.03025 13.1885 3.17862 13.25 3.33333 13.25H12.6667C12.8214 13.25 12.9697 13.1885 13.0791 13.0791C13.1885 12.9697 13.25 12.8214 13.25 12.6667V10C13.25 9.58579 13.5858 9.25 14 9.25C14.4142 9.25 14.75 9.58579 14.75 10V12.6667C14.75 13.2192 14.5305 13.7491 14.1398 14.1398C13.7491 14.5305 13.2192 14.75 12.6667 14.75H3.33333C2.7808 14.75 2.25089 14.5305 1.86019 14.1398C1.46949 13.7491 1.25 13.2192 1.25 12.6667V10C1.25 9.58579 1.58579 9.25 2 9.25Z" fill="#0684F8"/>
<path fill-rule="evenodd" clip-rule="evenodd" d="M4.13666 6.13642C4.42956 5.84352 4.90443 5.84352 5.19732 6.13642L8.00033 8.93942L10.8033 6.13642C11.0962 5.84352 11.5711 5.84352 11.864 6.13642C12.1569 6.42931 12.1569 6.90418 11.864 7.19708L8.53066 10.5304C8.23776 10.8233 7.76289 10.8233 7.47 10.5304L4.13666 7.19708C3.84377 6.90418 3.84377 6.42931 4.13666 6.13642Z" fill="#0684F8"/>
<path fill-rule="evenodd" clip-rule="evenodd" d="M8 1.25C8.41421 1.25 8.75 1.58579 8.75 2V10C8.75 10.4142 8.41421 10.75 8 10.75C7.58579 10.75 7.25 10.4142 7.25 10V2C7.25 1.58579 7.58579 1.25 8 1.25Z" fill="#0684F8"/>
</svg>
