<svg width="16" height="16" viewBox="0 0 16 16" fill="none" xmlns="http://www.w3.org/2000/svg">
<g clip-path="url(#clip0_201_4319)">
<path d="M15.2325 11.4721L13.2965 9.52012C12.9765 9.20012 12.5445 9.00812 12.1445 9.00812C11.7125 9.00812 11.3285 9.18412 10.9925 9.52012L9.87246 10.6401C9.82446 10.6081 9.76046 10.5761 9.71246 10.5601C9.71246 10.5601 9.69646 10.5601 9.69646 10.5441L9.68046 10.5281C9.53646 10.4321 9.37646 10.3361 9.18446 10.2561C8.20846 9.64812 7.29646 8.80012 6.36846 7.66412C5.93646 7.12012 5.63246 6.64012 5.39246 6.11212C5.64846 5.90412 5.84046 5.69612 5.98446 5.53612L6.48046 5.04012C6.86446 4.68812 7.05646 4.28812 7.05646 3.87212C7.05646 3.44012 6.86446 3.04012 6.49646 2.65612L4.97646 1.13612C4.83246 0.992121 4.68846 0.848121 4.52846 0.704121C4.20846 0.400121 3.80846 0.224121 3.39246 0.224121C2.92846 0.224121 2.54446 0.384121 2.19246 0.736121L1.02446 1.90412C0.560464 2.33612 0.288464 2.88012 0.224464 3.55212V3.56812C0.192464 4.40012 0.320464 5.16812 0.672464 6.12812C1.23246 7.63212 2.08046 9.04012 3.34446 10.5921C4.99246 12.4481 6.84846 13.8881 8.91246 14.8801L8.96046 14.8961C9.56846 15.1681 10.7205 15.6801 12.0005 15.7601H12.1765C13.0245 15.7601 13.6645 15.4881 14.1925 14.9121C14.3845 14.6881 14.5925 14.4801 14.7685 14.2881C14.9125 14.1761 15.0085 14.0641 15.1045 13.9521L15.2325 13.8241L15.2645 13.7921C15.9365 13.0561 15.9365 12.1601 15.2325 11.4721ZM14.6725 13.2481L14.5125 13.4081L14.4965 13.4401C14.4165 13.5361 14.3525 13.6161 14.2725 13.6801L14.2245 13.7281C14.0325 13.9201 13.8085 14.1441 13.5845 14.4001C13.2165 14.8001 12.8005 14.9761 12.1765 14.9761H12.0485C10.9285 14.8961 9.90446 14.4481 9.29646 14.1761L9.26446 14.1601C7.29646 13.2161 5.52046 11.8401 3.96846 10.0801C2.75246 8.60812 1.95246 7.26412 1.42446 5.85612C1.10446 4.97612 0.992464 4.33612 1.02446 3.61612C1.07246 3.15212 1.24846 2.78412 1.56846 2.49612L2.75246 1.31212C2.94446 1.12012 3.13646 1.04012 3.37646 1.04012C3.58446 1.04012 3.77646 1.13612 3.95246 1.29612L3.96846 1.31212C4.11246 1.44012 4.25646 1.58412 4.40046 1.72812L5.92046 3.24812C6.20846 3.53612 6.25646 3.76012 6.25646 3.88812C6.25646 4.01612 6.22446 4.20812 5.92046 4.48012L5.40846 4.99212C5.23246 5.18412 5.02446 5.39212 4.75246 5.61612L4.72046 5.64812L4.68846 5.69612C4.54446 5.88812 4.52846 6.06412 4.60846 6.32012L4.62446 6.38412L4.64046 6.44812C4.91246 7.04012 5.24846 7.58412 5.72846 8.19212C6.72046 9.40812 7.71246 10.3201 8.76846 10.9761L8.81646 11.0081C8.94446 11.0721 9.07246 11.1361 9.18446 11.2001C9.23246 11.2481 9.29646 11.2801 9.34446 11.2961C9.40846 11.3281 9.45646 11.3441 9.48846 11.3761L9.60046 11.4561H9.63246L9.68046 11.4721C9.77646 11.5041 9.84046 11.5041 9.88846 11.5041C10.0485 11.5041 10.1925 11.4401 10.3365 11.2961L11.5365 10.0961C11.7285 9.90412 11.9045 9.82412 12.1285 9.82412C12.3685 9.82412 12.5925 9.96812 12.7205 10.0961L14.6725 12.0481C15.0565 12.4321 15.0725 12.8321 14.6725 13.2481Z" fill="#E3E6E8"/>
</g>
<defs>
<clipPath id="clip0_201_4319">
<rect width="16" height="16" fill="white"/>
</clipPath>
</defs>
</svg>
