<svg width="16" height="16" viewBox="0 0 16 16" fill="none" xmlns="http://www.w3.org/2000/svg">
<path d="M8 8C8.69223 8 9.36892 7.79473 9.9445 7.41015C10.5201 7.02556 10.9687 6.47894 11.2336 5.83939C11.4985 5.19985 11.5678 4.49612 11.4327 3.81719C11.2977 3.13825 10.9644 2.51461 10.4749 2.02513C9.98539 1.53564 9.36175 1.2023 8.68282 1.06725C8.00388 0.932205 7.30015 1.00152 6.66061 1.26642C6.02107 1.53133 5.47444 1.97993 5.08986 2.55551C4.70527 3.13108 4.5 3.80777 4.5 4.5C4.5 5.42826 4.86875 6.3185 5.52513 6.97487C6.1815 7.63125 7.07174 8 8 8ZM8 2C8.49445 2 8.9778 2.14662 9.38893 2.42133C9.80005 2.69603 10.1205 3.08648 10.3097 3.54329C10.4989 4.00011 10.5484 4.50277 10.452 4.98773C10.3555 5.47268 10.1174 5.91814 9.76777 6.26777C9.41814 6.6174 8.97268 6.8555 8.48773 6.95196C8.00277 7.04843 7.50011 6.99892 7.04329 6.8097C6.58648 6.62048 6.19603 6.30005 5.92133 5.88893C5.64662 5.4778 5.5 4.99445 5.5 4.5C5.5 3.83696 5.76339 3.20108 6.23223 2.73223C6.70107 2.26339 7.33696 2 8 2Z" fill="#E3E6E8"/>
<path d="M8.5 9H7.5C6.04131 9 4.64236 9.57946 3.61091 10.6109C2.57946 11.6424 2 13.0413 2 14.5C2 14.6326 2.05268 14.7598 2.14645 14.8536C2.24021 14.9473 2.36739 15 2.5 15H13.5C13.6326 15 13.7598 14.9473 13.8536 14.8536C13.9473 14.7598 14 14.6326 14 14.5C14 13.0413 13.4205 11.6424 12.3891 10.6109C11.3576 9.57946 9.95869 9 8.5 9ZM3.03 14C3.15295 12.9003 3.67676 11.8845 4.50134 11.1466C5.32592 10.4087 6.39347 10.0005 7.5 10H8.5C9.60653 10.0005 10.6741 10.4087 11.4987 11.1466C12.3232 11.8845 12.8471 12.9003 12.97 14H3.03Z" fill="#E3E6E8"/>
</svg>
