<svg width="40" height="40" viewBox="0 0 40 40" fill="none" xmlns="http://www.w3.org/2000/svg">
<path d="M5.00065 21.6666L30.9773 21.6666L22.1557 30.4882C21.5048 31.1391 21.5048 32.194 22.1557 32.8449C22.8065 33.4957 23.8619 33.4957 24.5127 32.8449L36.1794 21.1782C36.8302 20.5274 36.8302 19.472 36.1794 18.8216L24.5127 7.15488C24.1873 6.82947 23.7607 6.66655 23.334 6.66655C22.9077 6.66655 22.4811 6.82947 22.1557 7.15488C21.5048 7.80572 21.5048 8.86113 22.1557 9.51155L30.9773 18.3332L5.00065 18.3332C4.08065 18.3332 3.33398 19.0795 3.33398 19.9999C3.33398 20.9203 4.08023 21.6666 5.00065 21.6666Z" fill="#F9FAFA"/>
</svg>
