<svg width="40" height="40" viewBox="0 0 40 40" fill="none" xmlns="http://www.w3.org/2000/svg">
<path d="M34.9993 18.3334L9.02268 18.3334L17.8443 9.51178C18.4952 8.86095 18.4952 7.80595 17.8443 7.15512C17.1935 6.50428 16.1381 6.50428 15.4873 7.15512L3.8206 18.8218C3.16976 19.4726 3.16976 20.528 3.8206 21.1784L15.4873 32.8451C15.8127 33.1705 16.2393 33.3334 16.666 33.3334C17.0923 33.3334 17.5189 33.1705 17.8443 32.8451C18.4952 32.1943 18.4952 31.1389 17.8443 30.4884L9.02268 21.6668L34.9993 21.6668C35.9193 21.6668 36.666 20.9205 36.666 20.0001C36.666 19.0797 35.9198 18.3334 34.9993 18.3334Z" fill="#F9FAFA"/>
</svg>
