<svg width="24" height="24" viewBox="0 0 24 24" fill="none" xmlns="http://www.w3.org/2000/svg">
<path d="M11.0001 3.00049L11.0001 18.5865L5.70712 13.2935C5.31662 12.903 4.68362 12.903 4.29312 13.2935C3.90262 13.684 3.90262 14.3172 4.29312 14.7077L11.2931 21.7077C11.6836 22.0982 12.3169 22.0982 12.7071 21.7077L19.7071 14.7077C19.9024 14.5125 20.0001 14.2565 20.0001 14.0005C20.0001 13.7447 19.9024 13.4887 19.7071 13.2935C19.3166 12.903 18.6834 12.903 18.2931 13.2935L13.0001 18.5865L13.0001 3.00049C13.0001 2.44849 12.5524 2.00049 12.0001 2.00049C11.4479 2.00049 11.0001 2.44824 11.0001 3.00049Z" fill="#F9FAFA"/>
</svg>
