<svg width="80" height="80" viewBox="0 0 80 80" fill="none" xmlns="http://www.w3.org/2000/svg">
<rect width="80" height="80" rx="16" fill="#F9FAFA"/>
<path d="M41.508 33.6667C41.235 33.6751 40.9725 33.7891 40.7793 33.9876L35.2395 39.5398L31.827 36.1198C30.8715 35.1191 29.328 36.6644 30.3255 37.6229L34.4898 41.7987C34.9035 42.2146 35.5755 42.2146 35.9913 41.7987L42.2808 35.4928C42.9738 34.8172 42.4635 33.6667 41.5101 33.6667H41.508ZM10.05 42.1111H16.35C16.9317 42.1111 17.4 42.5819 17.4 43.1667C17.4 43.7514 16.9317 44.2222 16.35 44.2222H10.05C9.4683 44.2222 9 43.7514 9 43.1667C9 42.5819 9.4683 42.1111 10.05 42.1111ZM10.05 33.6667H16.35C16.9317 33.6667 17.4 34.1374 17.4 34.7222C17.4 35.307 16.9317 35.7778 16.35 35.7778H10.05C9.4683 35.7778 9 35.307 9 34.7222C9 34.1374 9.4683 33.6667 10.05 33.6667ZM10.05 25.2222H16.35C16.9317 25.2222 17.4 25.693 17.4 26.2778C17.4 26.8626 16.9317 27.3333 16.35 27.3333H10.05C9.4683 27.3333 9 26.8626 9 26.2778C9 25.693 9.4683 25.2222 10.05 25.2222ZM60.45 48.4444C57.5625 48.4444 55.2 50.8194 55.2 53.7222C55.2 56.625 57.5625 59 60.45 59C63.3375 59 65.7 56.625 65.7 53.7222C65.7 50.8194 63.3375 48.4444 60.45 48.4444ZM60.45 50.5556C62.2014 50.5556 63.6 51.9616 63.6 53.7222C63.6 55.4829 62.2014 56.8889 60.45 56.8889C58.6986 56.8889 57.3 55.4829 57.3 53.7222C57.3 51.9616 58.6986 50.5556 60.45 50.5556ZM33.15 48.4444C30.2625 48.4444 27.9 50.8194 27.9 53.7222C27.9 56.625 30.2625 59 33.15 59C36.0375 59 38.4 56.625 38.4 53.7222C38.4 50.8194 36.0375 48.4444 33.15 48.4444ZM33.15 50.5556C34.9014 50.5556 36.3 51.9616 36.3 53.7222C36.3 55.4829 34.9014 56.8889 33.15 56.8889C31.3986 56.8889 30 55.4829 30 53.7222C30 51.9616 31.3986 50.5556 33.15 50.5556ZM22.65 21C20.9238 21 19.5 22.4313 19.5 24.1667V47.3889C19.5 49.1242 20.9238 50.5556 22.65 50.5556H26.85C28.2696 50.5767 28.2696 48.4233 26.85 48.4444H22.65C22.0494 48.4444 21.6 47.9927 21.6 47.3889V24.1667C21.6 23.5629 22.0494 23.1111 22.65 23.1111H49.95C50.5506 23.1111 51 23.5629 51 24.1667V48.4444H39.45C38.064 48.4444 38.0892 50.5767 39.45 50.5556H54.15C55.536 50.5556 55.5234 48.4444 54.15 48.4444H53.1V29.4444H61.9767L69.9 41.8916V47.3889C69.9 47.9927 69.4506 48.4444 68.85 48.4444H66.75C65.3766 48.4444 65.3766 50.5556 66.75 50.5556H68.85C70.5762 50.5556 72 49.1242 72 47.3889V41.5833C72 41.3828 71.9433 41.1822 71.8362 41.0133L63.4362 27.8189C63.243 27.517 62.9112 27.3333 62.55 27.3333H53.1V24.1667C53.1 22.4313 51.6762 21 49.95 21H22.65Z" fill="#0684F8"/>
</svg>
