<svg width="44" height="67" viewBox="0 0 44 67" fill="none" xmlns="http://www.w3.org/2000/svg">
<path d="M17.6226 66.8113C11.5229 66.3866 1.76714 64.0805 0.661531 53.6588C-0.444083 43.2371 0.170147 8.18903 0.170147 7.56272C0.170148 -2.58344 15.9894 -2.45818 15.9894 7.56272V53.6588C15.9894 53.8208 16.0009 54.0167 16.0251 54.2416C17.0685 53.8726 19.1499 52.9297 21.7687 51.7799C26.3456 49.7704 35.4205 44.8362 40.6945 50.4407C41.4601 51.2542 41.9177 54.0127 41.9802 55.1281C42.4133 62.851 36.1626 66.8113 28.4275 66.8113C28.4275 66.8113 23.7224 67.2359 17.6226 66.8113Z" fill="white"/>
<mask id="mask0_201_3270" style="mask-type:alpha" maskUnits="userSpaceOnUse" x="0" y="4" width="44" height="63">
<path d="M17.6227 66.8113C11.5229 66.3866 1.76716 64.0805 0.66155 53.6588C-0.444064 43.2371 0.66155 7.56271 0.66155 7.56271C1.57373 1.21378 0.661551 7.56272 15.9894 7.56271V53.6588C18.2464 52.9251 16.8709 53.9303 21.7687 51.7799C26.6666 49.6295 36.6717 44.0431 41.7452 51.7799C42.2482 52.547 42.6515 53.3097 42.9698 54.0615C46.2235 61.744 36.7707 66.8113 28.4275 66.8113C28.4275 66.8113 23.7224 67.2359 17.6227 66.8113Z" fill="#0779E3"/>
</mask>
<g mask="url(#mask0_201_3270)">
<g opacity="0.7" filter="url(#filter0_f_201_3270)">
<ellipse cx="9.85861" cy="12.7049" rx="9.85861" ry="12.7049" transform="matrix(0.78428 -0.620407 0.626797 0.779183 -9.25073 63.1904)" fill="url(#paint0_linear_201_3270)" style="mix-blend-mode:multiply"/>
</g>
<g filter="url(#filter1_f_201_3270)">
<ellipse cx="15.9073" cy="19.4899" rx="15.9073" ry="19.4899" transform="matrix(0.955461 0.295119 -0.299664 0.954045 -1.43335 -16.5596)" fill="white"/>
</g>
</g>
<mask id="mask1_201_3270" style="mask-type:alpha" maskUnits="userSpaceOnUse" x="16" y="47" width="26" height="20">
<path d="M16.0239 54.2302C16.6917 54.0227 19.2786 52.8864 20.7597 52.2361C22.0481 51.7003 22.1148 51.6726 20.7597 52.2361C21.3579 51.9734 23.104 51.1618 23.9387 50.7592C29.4039 48.1232 36.2796 46.0825 40.5684 50.3476C41.4308 51.2053 41.8028 52.4161 41.8864 53.6295C42.414 61.2793 36.1598 66.8113 28.4275 66.8113C28.4275 66.8113 28.048 66.8456 27.3647 66.8849C27.2432 66.8603 27.1234 66.8358 27.0055 66.8113C20.8954 65.5431 16.9035 61.2564 16.0239 54.2302Z" fill="#0779E3"/>
</mask>
<g mask="url(#mask1_201_3270)">
<g opacity="0.7" filter="url(#filter2_f_201_3270)">
<ellipse cx="7.77876" cy="9.03113" rx="7.77876" ry="9.03113" transform="matrix(0.852716 0.522374 -0.528753 0.848776 33.9866 39.6338)" fill="white"/>
</g>
<g opacity="0.7" filter="url(#filter3_f_201_3270)">
<ellipse cx="12.2486" cy="15.7017" rx="12.2486" ry="15.7017" transform="matrix(0.962782 0.270278 -0.274506 0.961585 15.9277 44.1633)" fill="url(#paint1_linear_201_3270)" style="mix-blend-mode:multiply"/>
</g>
</g>
<defs>
<filter id="filter0_f_201_3270" x="-50.3691" y="9.62117" width="113.627" height="114.705" filterUnits="userSpaceOnUse" color-interpolation-filters="sRGB">
<feFlood flood-opacity="0" result="BackgroundImageFix"/>
<feBlend mode="normal" in="SourceGraphic" in2="BackgroundImageFix" result="shape"/>
<feGaussianBlur stdDeviation="22.8571" result="effect1_foregroundBlur_201_3270"/>
</filter>
<filter id="filter1_f_201_3270" x="-109.586" y="-113.678" width="235.023" height="240.814" filterUnits="userSpaceOnUse" color-interpolation-filters="sRGB">
<feFlood flood-opacity="0" result="BackgroundImageFix"/>
<feBlend mode="normal" in="SourceGraphic" in2="BackgroundImageFix" result="shape"/>
<feGaussianBlur stdDeviation="50.6122" result="effect1_foregroundBlur_201_3270"/>
</filter>
<filter id="filter2_f_201_3270" x="-11.513" y="3.50139" width="94.7148" height="95.7226" filterUnits="userSpaceOnUse" color-interpolation-filters="sRGB">
<feFlood flood-opacity="0" result="BackgroundImageFix"/>
<feBlend mode="normal" in="SourceGraphic" in2="BackgroundImageFix" result="shape"/>
<feGaussianBlur stdDeviation="19.5918" result="effect1_foregroundBlur_201_3270"/>
</filter>
<filter id="filter3_f_201_3270" x="-34.8632" y="1.39753" width="116.547" height="122.35" filterUnits="userSpaceOnUse" color-interpolation-filters="sRGB">
<feFlood flood-opacity="0" result="BackgroundImageFix"/>
<feBlend mode="normal" in="SourceGraphic" in2="BackgroundImageFix" result="shape"/>
<feGaussianBlur stdDeviation="22.8571" result="effect1_foregroundBlur_201_3270"/>
</filter>
<linearGradient id="paint0_linear_201_3270" x1="24.2291" y1="11.5858" x2="9.33087" y2="16.2436" gradientUnits="userSpaceOnUse">
<stop stop-color="white"/>
<stop offset="1" stop-color="#90C1EE"/>
</linearGradient>
<linearGradient id="paint1_linear_201_3270" x1="23.8191" y1="-2.57325" x2="14.3141" y2="20.1202" gradientUnits="userSpaceOnUse">
<stop stop-color="white"/>
<stop offset="1" stop-color="#90C1EE"/>
</linearGradient>
</defs>
</svg>
