<svg width="44" height="63" viewBox="0 0 44 63" fill="none" xmlns="http://www.w3.org/2000/svg">
<mask id="mask0_206_2670" style="mask-type:alpha" maskUnits="userSpaceOnUse" x="0" y="0" width="44" height="63">
<path d="M17.6227 62.8113C11.5229 62.3866 1.76716 60.0805 0.66155 49.6588C-0.444064 39.2371 0.66155 3.56271 0.66155 3.56271C1.57373 -2.78622 0.661551 3.56272 15.9894 3.56271V49.6588C18.2464 48.9251 16.8709 49.9303 21.7687 47.7799C26.6666 45.6295 36.6717 40.0431 41.7452 47.7799C42.2482 48.547 42.6515 49.3097 42.9698 50.0615C46.2235 57.744 36.7707 62.8113 28.4275 62.8113C28.4275 62.8113 23.7224 63.2359 17.6227 62.8113Z" fill="#0779E3"/>
</mask>
<g mask="url(#mask0_206_2670)">
<g opacity="0.7" filter="url(#filter0_f_206_2670)">
<ellipse cx="9.85861" cy="12.7049" rx="9.85861" ry="12.7049" transform="matrix(0.78428 -0.620407 0.626797 0.779183 -9.25073 59.1904)" fill="url(#paint0_linear_206_2670)" style="mix-blend-mode:multiply"/>
</g>
<g filter="url(#filter1_f_206_2670)">
<ellipse cx="15.9073" cy="19.4899" rx="15.9073" ry="19.4899" transform="matrix(0.955461 0.295119 -0.299664 0.954045 -1.43347 -20.5596)" fill="white" style="mix-blend-mode:lighten"/>
</g>
</g>
<defs>
<filter id="filter0_f_206_2670" x="-50.3692" y="5.62117" width="113.627" height="114.705" filterUnits="userSpaceOnUse" color-interpolation-filters="sRGB">
<feFlood flood-opacity="0" result="BackgroundImageFix"/>
<feBlend mode="normal" in="SourceGraphic" in2="BackgroundImageFix" result="shape"/>
<feGaussianBlur stdDeviation="22.8571" result="effect1_foregroundBlur_206_2670"/>
</filter>
<filter id="filter1_f_206_2670" x="-109.586" y="-117.678" width="235.022" height="240.814" filterUnits="userSpaceOnUse" color-interpolation-filters="sRGB">
<feFlood flood-opacity="0" result="BackgroundImageFix"/>
<feBlend mode="normal" in="SourceGraphic" in2="BackgroundImageFix" result="shape"/>
<feGaussianBlur stdDeviation="50.6122" result="effect1_foregroundBlur_206_2670"/>
</filter>
<linearGradient id="paint0_linear_206_2670" x1="24.2291" y1="11.5858" x2="9.33087" y2="16.2436" gradientUnits="userSpaceOnUse">
<stop stop-color="white"/>
<stop offset="1" stop-color="#90C1EE"/>
</linearGradient>
</defs>
</svg>
